<svg version="1.1" id="Layer_1" xmlns="http://www.w3.org/2000/svg" xmlns:xlink="http://www.w3.org/1999/xlink" x="0px" y="0px"
	 width="100%" viewBox="0 0 225 225" enable-background="new 0 0 225 225" xml:space="preserve">
<path fill="#E7E7E7" opacity="1.000000" stroke="none" 
	d="
M130.000000,226.000000 
	C86.666672,226.000000 43.833340,226.000000 1.000006,226.000000 
	C1.000004,151.000000 1.000004,76.000015 1.000002,1.000016 
	C75.999992,1.000010 150.999985,1.000010 225.999969,1.000005 
	C225.999985,75.999985 225.999985,150.999969 226.000000,225.999969 
	C194.166672,226.000000 162.333328,226.000000 130.000000,226.000000 
M61.523834,198.944199 
	C92.856888,198.943893 124.190353,199.013229 155.522324,198.828934 
	C158.458588,198.811661 162.278305,198.071640 164.156784,196.161499 
	C171.037628,189.164825 175.960312,180.918457 175.968170,170.612640 
	C175.990402,141.446274 175.976578,112.279869 175.975571,83.113487 
	C175.975281,74.478905 174.924591,73.356750 166.281845,73.264046 
	C159.014374,73.186081 159.761444,74.096413 158.838013,66.329491 
	C158.021515,59.461952 156.312790,52.617283 154.209793,46.013527 
	C152.662857,41.155972 149.834167,39.614746 145.644730,39.860683 
	C153.348312,51.839054 154.206512,65.231216 154.113403,78.724281 
	C157.711060,78.959969 160.551086,79.146019 163.786148,79.357956 
	C158.912643,85.487114 155.540466,86.400162 147.983292,83.961647 
	C147.667374,80.252563 147.387390,76.444176 147.010986,72.645340 
	C145.935928,61.795547 143.595352,51.290028 138.290710,41.631310 
	C128.079193,23.038103 109.034790,17.149723 90.221901,26.976921 
	C75.673889,34.576290 67.623589,47.388569 65.305550,62.994247 
	C63.836338,72.885353 60.016193,79.526535 51.166519,83.709877 
	C47.185322,85.591835 45.863510,88.954124 45.891556,93.521683 
	C46.077785,123.853569 45.986816,154.187164 45.986221,184.520203 
	C45.985943,198.944504 45.986156,198.944504 61.523834,198.944199 
z"/>
<path fill="#979797" opacity="1.000000" stroke="none" 
	d="
M61.030163,198.944153 
	C45.986156,198.944504 45.985943,198.944504 45.986221,184.520203 
	C45.986816,154.187164 46.077785,123.853569 45.891556,93.521683 
	C45.863510,88.954124 47.185322,85.591835 51.166519,83.709877 
	C60.016193,79.526535 63.836338,72.885353 65.305550,62.994247 
	C67.623589,47.388569 75.673889,34.576290 90.221901,26.976921 
	C109.034790,17.149723 128.079193,23.038103 138.290710,41.631310 
	C143.595352,51.290028 145.935928,61.795547 147.010986,72.645340 
	C147.387390,76.444176 147.667374,80.252563 147.983292,83.961647 
	C155.540466,86.400162 158.912643,85.487114 163.786148,79.357956 
	C160.551086,79.146019 157.711060,78.959969 154.113403,78.724281 
	C154.206512,65.231216 153.348312,51.839054 145.644730,39.860683 
	C149.834167,39.614746 152.662857,41.155972 154.209793,46.013527 
	C156.312790,52.617283 158.021515,59.461952 158.838013,66.329491 
	C159.761444,74.096413 159.014374,73.186081 166.281845,73.264046 
	C174.924591,73.356750 175.975281,74.478905 175.975571,83.113487 
	C175.976578,112.279869 175.990402,141.446274 175.968170,170.612640 
	C175.960312,180.918457 171.037628,189.164825 164.156784,196.161499 
	C162.278305,198.071640 158.458588,198.811661 155.522324,198.828934 
	C124.190353,199.013229 92.856888,198.943893 61.030163,198.944153 
M76.622635,84.968628 
	C98.233414,84.968628 119.844193,84.968628 141.991898,84.968628 
	C142.183044,67.499107 140.068314,51.274971 128.427200,38.172516 
	C114.810295,22.846256 93.502388,24.082333 80.995796,40.428703 
	C72.687286,51.288101 69.753349,63.970921 68.891396,77.320671 
	C68.397858,84.964600 68.334702,84.960526 76.622635,84.968628 
z"/>
<path fill="#E5E5E5" opacity="1.000000" stroke="none" 
	d="
M76.142929,84.968597 
	C68.334702,84.960526 68.397858,84.964600 68.891396,77.320671 
	C69.753349,63.970921 72.687286,51.288101 80.995796,40.428703 
	C93.502388,24.082333 114.810295,22.846256 128.427200,38.172516 
	C140.068314,51.274971 142.183044,67.499107 141.991898,84.968628 
	C119.844193,84.968628 98.233414,84.968628 76.142929,84.968597 
M110.500000,79.004402 
	C117.655464,78.988457 124.813889,78.841393 131.965332,79.003357 
	C136.617661,79.108727 136.737839,76.910835 135.394562,73.019104 
	C117.033653,73.019104 98.796135,73.019104 80.249786,73.019104 
	C81.046577,64.312813 83.780632,56.955330 89.191139,50.796124 
	C97.397301,41.454411 108.540695,38.718620 120.560524,37.161057 
	C117.631706,35.526009 114.627914,34.023388 111.606880,33.987885 
	C87.600624,33.705727 74.692284,56.010490 74.726616,79.006203 
	C86.312225,79.006203 97.906113,79.006203 110.500000,79.004402 
z"/>
<path fill="#9A9A9A" opacity="1.000000" stroke="none" 
	d="
M110.000000,79.005302 
	C97.906113,79.006203 86.312225,79.006203 74.726616,79.006203 
	C74.692284,56.010490 87.600624,33.705727 111.606880,33.987885 
	C114.627914,34.023388 117.631706,35.526009 120.560524,37.161057 
	C108.540695,38.718620 97.397301,41.454411 89.191139,50.796124 
	C83.780632,56.955330 81.046577,64.312813 80.249786,73.019104 
	C98.796135,73.019104 117.033653,73.019104 135.394562,73.019104 
	C136.737839,76.910835 136.617661,79.108727 131.965332,79.003357 
	C124.813889,78.841393 117.655464,78.988457 110.000000,79.005302 
z"/>
</svg>